inDegrees=no
num_controls=7
num_derivatives=13
num_iterations=216
num_multipliers=7
num_parameters=0
num_slacks=7
num_states=26
objective=5.587239
objective_accelerations=0.431103
objective_balance=0.036354
objective_effort=0.437885
objective_height=4.585959
objective_ligament=0.095938
solver_duration=2341.068047
status=Solve_Succeeded
success=true
DataType=double
version=3
OpenSimVersion=4.4-2022-07-23-0e9fedc
endheader
time	/jointset/ground_pelvis/pelvis_tilt/value	/jointset/ground_pelvis/pelvis_tx/value	/jointset/ground_pelvis/pelvis_ty/value	/jointset/hip_l/hip_flexion_l/value	/jointset/hip_l/hip_adduction_l/value	/jointset/hip_l/hip_rotation_l/value	/jointset/back/lumbar_extension/value	/jointset/patellofemoral_l/patellar_flexion_l/value	/jointset/knee_l/knee_flexion_l/value	/jointset/knee_l/knee_adduction_l/value	/jointset/knee_l/knee_rotation_l/value	/jointset/ankle_l/ankle_angle_l/value	/jointset/subtalar_l/subtalar_angle_l/value	/jointset/ground_pelvis/pelvis_tilt/speed	/jointset/ground_pelvis/pelvis_tx/speed	/jointset/ground_pelvis/pelvis_ty/speed	/jointset/hip_l/hip_flexion_l/speed	/jointset/hip_l/hip_adduction_l/speed	/jointset/hip_l/hip_rotation_l/speed	/jointset/back/lumbar_extension/speed	/jointset/patellofemoral_l/patellar_flexion_l/speed	/jointset/knee_l/knee_flexion_l/speed	/jointset/knee_l/knee_adduction_l/speed	/jointset/knee_l/knee_rotation_l/speed	/jointset/ankle_l/ankle_angle_l/speed	/jointset/subtalar_l/subtalar_angle_l/speed	/forceset/tau_hip_flexion_l	/forceset/tau_hip_adduction_l	/forceset/tau_hip_rotation_l	/forceset/tau_knee_flexion_l	/forceset/tau_ankle_angle_l	/forceset/tau_subtalar_angle_l	/forceset/tau_lumbar_extension	lambda_cid13_p0	lambda_cid13_p1	lambda_cid13_p2	lambda_cid13_p3	lambda_cid13_p4	lambda_cid13_p5	lambda_cid14_p0	/jointset/ground_pelvis/pelvis_tilt/accel	/jointset/ground_pelvis/pelvis_tx/accel	/jointset/ground_pelvis/pelvis_ty/accel	/jointset/hip_l/hip_flexion_l/accel	/jointset/hip_l/hip_adduction_l/accel	/jointset/hip_l/hip_rotation_l/accel	/jointset/back/lumbar_extension/accel	/jointset/patellofemoral_l/patellar_flexion_l/accel	/jointset/knee_l/knee_flexion_l/accel	/jointset/knee_l/knee_adduction_l/accel	/jointset/knee_l/knee_rotation_l/accel	/jointset/ankle_l/ankle_angle_l/accel	/jointset/subtalar_l/subtalar_angle_l/accel	gamma_cid13_p0	gamma_cid13_p1	gamma_cid13_p2	gamma_cid13_p3	gamma_cid13_p4	gamma_cid13_p5	gamma_cid14_p0
1	-0.08253744169730896	-0.05476004246856342	0.7299201768236239	1.167205916954658	-0.331802901669786	0.02450240746926316	-0.9599310824243666	1.242984622531645	1.242984622531684	-0.08089806759223873	-0.1745327891308304	0.2449815140940271	0.04623340947955638	0.109600638945782	0.0278582237272239	0.06555949894628475	-0.2975992434394922	-0.002430417493498313	-0.06499619555478878	-0.001584564333193785	-0.1620587280179265	-0.1620587280179254	0.000479696302756669	-5.96765651725513e-06	0.01723992240122747	0.005103914433555947	-0.3488170461509276	0.01928895411035934	-0.003219138480066332	-0.3365133831359575	0.03912897758269807	0.04036936813740126	0.4111761109560162	-37.0029010584696	-11.58174748528811	1.995552218597236	10.85527076839032	-784.8376456079166	-76.73898895136985	-0.4714944535015735	0.7497773189132023	0.06151486290233826	1.252540065870734	-4.284663339874458	-0.02805483416888774	-1.497909382088302	0.2987584752549375	-4.405361326307311	-4.405361326307301	-0.223206534359627	-0.01299132429713849	-1.176426795631296	-0.4953245012415794	-9.706303692806894e-09	3.13661536448146e-09	4.773518367822854e-08	5.506764208339681e-09	-2.245072219997352e-08	6.974172578153129e-08	-1.219990591673122e-08
1.01	-0.08140443055595563	-0.05447831556133147	0.7306381703583829	1.164016681680476	-0.3318279716996725	0.02377714095488348	-0.9599310885968813	1.241144244229631	1.241144244229635	-0.08090298867435719	-0.1745327898412744	0.2450952878226836	0.04626058265074945	0.1169925041821123	0.02849510393675061	0.07802716850143546	-0.3402223805740197	-0.002576541634788067	-0.08004962476634735	0.001623093181605016	-0.2060046455086382	-0.2060046455086381	-0.001463179979233708	4.464674708843451e-06	0.005512224518755429	0.0003384892565765566	-0.348113461257527	0.01942505349359142	-0.00327010215702665	-0.3361940807514797	0.03899106402608607	0.04049305171609775	0.4109214480712512	-37.01478433009997	-11.64843824935263	2.02338181682566	10.69839346310893	-784.5311038143201	-76.82419970023284	-0.4918079393769215	0.7325267919479203	0.06596883776606018	1.242068801613474	-4.247326566058024	-0.006838381820351465	-1.507951242604443	0.3378904001849318	-4.387360654359449	-4.387360654359616	-0.179726085480913	0.007871769312002428	-1.171332122302182	-0.4659930120047821	-1.576874453742806e-08	-5.102554088562049e-09	6.680352037558833e-08	1.146555850509481e-08	-2.830641809334681e-08	7.561474104065151e-08	-1.633166033355691e-08
1.02	-0.08019777362904795	-0.05418998100444661	0.7314804782689485	1.160401977501786	-0.331854292406514	0.02290156183800533	-0.9598978044259859	1.23886477601393	1.238864776013899	-0.08092731810136794	-0.1745327239769281	0.245091706404966	0.04624033327295699	0.1243297960566416	0.02917975365780683	0.09042237410763378	-0.3826930243411928	-0.002680552884531382	-0.09505871605449856	0.005075591120106825	-0.2498767107556042	-0.2498767107556052	-0.003401972675710979	7.347305115190986e-06	-0.006231106873597729	-0.004380595363549694	-0.3474098763641268	0.01956115287682376	-0.003321065833987225	-0.335874778367002	0.03885315046947414	0.04061673529479462	0.4106667851864858	-37.03881513629992	-11.71172988754615	2.049216203749595	10.59220453198352	-784.3815583452597	-76.89497546740114	-0.517608146578126	0.7388626465530046	0.07106876520824179	1.238047276080255	-4.254164666403587	-0.01963225585960326	-1.489041797406829	0.3477265599955547	-4.390590877558156	-4.390590877558157	-0.2223898172570072	-0.0145012644610962	-1.17955349760752	-0.4860563898709555	-2.141655423552462e-08	-1.534608808558928e-08	8.447189234087117e-08	1.605691491801029e-08	-3.422905256086203e-08	7.908387314936863e-08	-2.035410235579529e-08
1.03	-0.07891839922222287	-0.05389434922523044	0.7324463576616029	1.156363495992451	-0.3318814296766643	0.02187619843295188	-0.9598271199162912	1.236146990824321	1.236146990824334	-0.08097107618371635	-0.1745326277438615	0.2449708780870381	0.04617325792073556	0.1314983218739742	0.02997602968243209	0.1027398527226451	-0.424962826393492	-0.002739698043892773	-0.1100030746522348	0.009266554122570703	-0.2936653306312015	-0.293665330631201	-0.005352506736834891	1.076672363127747e-05	-0.01791073819352259	-0.009014857754605197	-0.3479181784004656	0.01984317275595149	-0.003391763341964059	-0.3350841363219893	0.03857608029598027	0.04087214247999282	0.4118706553311915	-37.12991863074745	-11.83466605364398	2.100757724381044	10.13330747622725	-784.9497422715355	-77.00122722440047	-0.5492838412064879	0.6988311791966507	0.08832530025175685	1.226542332743247	-4.207323277132566	0.002017411413173896	-1.49552079488808	0.4855676659118734	-4.370743162860748	-4.370743162860517	-0.1818272178304569	0.007616173925888383	-1.158597762298113	-0.4491762420049897	-2.70601330035546e-08	-2.561007478204493e-08	1.021259789517451e-07	2.063431788313149e-08	-4.015237007505217e-08	8.252847583818368e-08	-2.437542894543584e-08
1.04	-0.07756874283124977	-0.05358987102993561	0.733535000676114	1.151903529402095	-0.3319089437869306	0.02070171386113474	-0.9597083684774632	1.232991770311897	1.232991770311954	-0.08103442801013411	-0.1745325267908243	0.2447339674932883	0.04606042692894715	0.138386192886237	0.03094903687354149	0.1149750984789219	-0.4669900405453706	-0.002755920907751062	-0.1248829494072136	0.01468897694663696	-0.3373637753188083	-0.3373637753188063	-0.007320721489573899	8.291298863982198e-06	-0.02944756203797336	-0.01353172327694671	-0.3484264804368042	0.02012519263507906	-0.003462460849940052	-0.3342934942769767	0.03829901012248626	0.04112754966519076	0.4130745254758975	-37.23330896993385	-11.95426436780097	2.150411661403629	9.723134606176751	-785.6781789770582	-77.09383983217086	-0.5872793277722893	0.6827316855390461	0.1064149985050702	1.221600704333348	-4.205647086319467	-0.0110477967589959	-1.476145028855337	0.5940185243160272	-4.372555839960062	-4.372555839960054	-0.2259259555800311	-0.01568023311780106	-1.150992002512702	-0.462577016128174	-3.024273997394789e-08	-3.64006721114073e-08	1.167436628916221e-07	2.094703974514163e-08	-4.426131870604935e-08	8.073993357708625e-08	-2.755535999709072e-08
1.05	-0.07615148665394306	-0.05327481874217306	0.734745524607106	1.147024553123446	-0.3319363915850743	0.0193788528701213	-0.9595297225696915	1.229400107719091	1.229400107719127	-0.08111761298746573	-0.1745324809553284	0.2443823224972753	0.04590300475241151	0.1450288168058043	0.0320869042022499	0.1271097077347941	-0.5087573936613599	-0.002722821219217004	-0.1396736251775464	0.02119934799448365	-0.3809442150383119	-0.3809442150383113	-0.009317281107827601	1.542211014723104e-06	-0.04086505192814736	-0.017930909428416	-0.348266610895101	0.02037429160492114	-0.003549632009599331	-0.3333606602240324	0.03821620967645811	0.04140484996196182	0.4135995122672962	-37.23357043805064	-12.10491380364446	2.208997800387585	9.300929664153369	-785.7369583339469	-77.21876412031055	-0.6321220073170991	0.6495915278689315	0.1212993556588332	1.206384334863685	-4.155109815160571	0.01210099319709836	-1.47821280491662	0.7034179030301608	-4.34710263368895	-4.347102633689188	-0.1866884639631602	0.006955769352634425	-1.134673165540495	-0.4253266611238323	-3.334844157566505e-08	-4.7207726023048e-08	1.312664592480306e-07	2.112649032267958e-08	-4.831356830944674e-08	7.878785553630411e-08	-3.070899743818355e-08
1.06	-0.07466889148089993	-0.05294762243000241	0.7360767932903867	1.141729337235452	-0.331963185958025	0.01790854833064561	-0.959281198649839	1.225373377809942	1.225373377809956	-0.08122079706078292	-0.1745324770075105	0.2439169934657066	0.04570224326506767	0.1514539920335059	0.03337784175516298	0.1391240489366464	-0.5502379624142264	-0.002625235869183274	-0.1543716590996542	0.02866457936277686	-0.4243772385875538	-0.4243772385875549	-0.01132054068668619	-8.623798971694623e-08	-0.05218436914915139	-0.02219958543858644	-0.348106741353397	0.02062339057476321	-0.003636803169258283	-0.3324278261710881	0.03813340923042983	0.04168215025873279	0.4141244990586956	-37.24607980327961	-12.25237104844053	2.265878170107746	8.924834621817022	-785.9566579092397	-77.33177917855893	-0.6843673887212071	0.6392419471659114	0.1370290433460024	1.197547093529371	-4.148290213694952	0.001849335540932458	-1.457616659210357	0.7849905884053296	-4.343072605907736	-4.343072605907736	-0.2272659477010114	-0.01465610534885092	-1.131357468678712	-0.4364749878684105	-3.649593715809441e-08	-5.846623398380685e-08	1.422758686222027e-07	2.16633259339883e-08	-5.218858143224446e-08	7.562713725339106e-08	-3.341725555266904e-08
1.07	-0.07312311337583008	-0.05260673737022427	0.7375275509124184	1.136020824385867	-0.3319886865867629	0.01629183329792512	-0.9589532892378918	1.220913142499742	1.220913142499753	-0.08134414259222396	-0.1745324816616017	0.2433389570730957	0.04545944353087029	0.1576657143453571	0.03482612429048532	0.1510019795708023	-0.5914075358840478	-0.002462342314890474	-0.1689520358124358	0.03707450946182206	-0.4676363054120863	-0.4676363054120875	-0.01334961575699942	-7.305625756041493e-07	-0.0634063493406322	-0.02633577346536732	-0.3476627240398657	0.02087826003638502	-0.003738904357023557	-0.3312811006939261	0.03817047293201704	0.04199744875052084	0.4144010221808495	-37.19231837241973	-12.43318695061209	2.334076596342757	8.468693442238589	-785.7863276881735	-77.4713490494799	-0.7446461239244325	0.6067474660561479	0.1527754238219251	1.179080398026337	-4.09273430747315	0.02537926777412666	-1.455384296901162	0.8925751859245377	-4.31228875635919	-4.312288756359208	-0.1909060490026825	0.007280553161209763	-1.115138873392549	-0.3985090585131396	-3.964565582460419e-08	-6.974875545781665e-08	1.530983957100856e-07	2.221917138751887e-08	-5.605416708266986e-08	7.240212959589659e-08	-3.610182327744137e-08
